<svg xmlns="http://www.w3.org/2000/svg" width="900" height="560" viewBox="0 0 900 560" role="img" aria-labelledby="title desc">
<title>Revenue by Month with Dollar Labels</title>
<desc>Revenue by Month with Dollar Labels chart for the pandas manual.</desc>
<rect width="100%" height="100%" fill="white"/>
<style>text{font-family:Arial,Helvetica,sans-serif;fill:#232323}.title{font-size:30px;font-weight:700}.label{font-size:17px}.small{font-size:14px}.legend{font-size:16px}</style>
<text class="title" x="450.0" y="48" text-anchor="middle">Revenue by Month with Dollar Labels</text>
<line x1="90" y1="470.0" x2="840" y2="470.0" stroke="#e2e8f0"/>
<line x1="90" y1="394.0" x2="840" y2="394.0" stroke="#e2e8f0"/>
<line x1="90" y1="318.0" x2="840" y2="318.0" stroke="#e2e8f0"/>
<line x1="90" y1="242.0" x2="840" y2="242.0" stroke="#e2e8f0"/>
<line x1="90" y1="166.0" x2="840" y2="166.0" stroke="#e2e8f0"/>
<line x1="90" y1="90.0" x2="840" y2="90.0" stroke="#e2e8f0"/>
<line x1="90" y1="90" x2="90" y2="470" stroke="#4b5563" stroke-width="3"/>
<line x1="90" y1="470" x2="840" y2="470" stroke="#4b5563" stroke-width="3"/>
<path d="M 90.0 232.5 L 240.0 219.2 L 390.0 183.1 L 540.0 188.8 L 690.0 139.4 L 840.0 110.9" fill="none" stroke="#2563eb" stroke-width="4"/>
<circle cx="90.0" cy="232.5" r="7" fill="#2563eb"/>
<text class="small" x="90.0" y="220.5" text-anchor="middle">$12.5k</text>
<circle cx="240.0" cy="219.2" r="7" fill="#2563eb"/>
<text class="small" x="240.0" y="207.2" text-anchor="middle">$13.2k</text>
<circle cx="390.0" cy="183.1" r="7" fill="#2563eb"/>
<text class="small" x="390.0" y="171.1" text-anchor="middle">$15.1k</text>
<circle cx="540.0" cy="188.8" r="7" fill="#2563eb"/>
<text class="small" x="540.0" y="176.8" text-anchor="middle">$14.8k</text>
<circle cx="690.0" cy="139.4" r="7" fill="#2563eb"/>
<text class="small" x="690.0" y="127.4" text-anchor="middle">$17.4k</text>
<circle cx="840.0" cy="110.9" r="7" fill="#2563eb"/>
<text class="small" x="840.0" y="98.9" text-anchor="middle">$18.9k</text>
<text class="small" x="90.0" y="498.0" text-anchor="middle">Jan</text>
<text class="small" x="240.0" y="498.0" text-anchor="middle">Feb</text>
<text class="small" x="390.0" y="498.0" text-anchor="middle">Mar</text>
<text class="small" x="540.0" y="498.0" text-anchor="middle">Apr</text>
<text class="small" x="690.0" y="498.0" text-anchor="middle">May</text>
<text class="small" x="840.0" y="498.0" text-anchor="middle">Jun</text>
</svg>
